<svg width="168" height="167" viewBox="0 0 168 167" fill="none" xmlns="http://www.w3.org/2000/svg">
<g clip-path="url(#clip0_84_322)">
<g opacity="0.5">
<path d="M83.8359 167C130.137 167 167.672 129.616 167.672 83.5C167.672 37.3842 130.137 0 83.8359 0C37.5346 0 0 37.3842 0 83.5C0 129.616 37.5346 167 83.8359 167Z" fill="url(#paint0_linear_84_322)"/>
</g>
<path d="M83.9993 164.705C129.324 164.705 166.067 128.11 166.067 82.9664C166.067 37.8231 129.324 1.22729 83.9993 1.22729C38.6744 1.22729 1.9314 37.8231 1.9314 82.9664C1.9314 128.11 38.6744 164.705 83.9993 164.705Z" fill="#F5F5F5"/>
<path d="M84.0761 165.029C100.112 165.055 115.801 160.378 129.186 151.582C126.162 135.122 114.653 134.184 114.653 134.184H51.1879C51.1879 134.184 40.3277 135.071 36.9358 150.214C50.7361 159.882 67.2036 165.058 84.0761 165.029V165.029Z" fill="#F76707"/>
<path d="M83.2041 120.697C105.081 120.697 122.816 103.033 122.816 81.2439C122.816 59.4545 105.081 41.7908 83.2041 41.7908C61.3271 41.7908 43.5923 59.4545 43.5923 81.2439C43.5923 103.033 61.3271 120.697 83.2041 120.697Z" fill="#333333"/>
<path opacity="0.1" d="M70.4197 114.105H95.8011V134.33C95.8011 137.681 94.4647 140.895 92.0857 143.266C89.7068 145.636 86.4801 146.968 83.1152 146.97V146.97C79.7494 146.97 76.5215 145.638 74.1415 143.267C71.7615 140.897 70.4245 137.682 70.4245 134.33V114.105H70.4197Z" fill="black"/>
<path d="M71.2245 113.168H95.006C95.2194 113.168 95.4241 113.252 95.575 113.402C95.7259 113.553 95.8107 113.757 95.8107 113.969V133.392C95.811 135.052 95.4829 136.697 94.8449 138.231C94.207 139.765 93.2718 141.159 92.0929 142.333C90.9139 143.507 89.5142 144.438 87.9738 145.073C86.4334 145.708 84.7824 146.035 83.1152 146.034V146.034C79.7495 146.034 76.5215 144.702 74.1416 142.332C71.7616 139.962 70.4246 136.747 70.4246 133.394V113.969C70.4246 113.757 70.5087 113.554 70.6586 113.404C70.8084 113.254 71.0119 113.169 71.2245 113.168V113.168Z" fill="#FDB797"/>
<path opacity="0.1" d="M70.4653 123.652C78.6455 126.696 87.6499 126.72 95.8467 123.721V120.611H70.4653V123.652Z" fill="black"/>
<path d="M83.2042 125.343C103.297 125.343 119.585 109.12 119.585 89.1082C119.585 69.0961 103.297 52.873 83.2042 52.873C63.1115 52.873 46.8232 69.0961 46.8232 89.1082C46.8232 109.12 63.1115 125.343 83.2042 125.343Z" fill="#FDB797"/>
<path opacity="0.1" d="M57.2896 56.1484C57.2896 56.1484 72.6226 87.1463 115.874 69.1448L105.804 53.4185L87.9533 47.0376L57.2896 56.1484Z" fill="black"/>
<path d="M57.2896 55.6937C57.2896 55.6937 72.6226 86.6916 115.874 68.6853L105.804 52.9591L87.9533 46.5781L57.2896 55.6937Z" fill="#333333"/>
<path d="M57.155 53.5932C58.1888 50.4056 59.9756 47.5117 62.3653 45.1546C69.5214 38.1086 81.2536 36.6228 87.271 28.5886C88.7124 30.8185 87.5977 34.247 85.1091 35.204C90.8743 35.1657 97.5548 34.6633 100.815 29.9404C101.62 31.8083 101.877 33.8656 101.555 35.8732C101.233 37.8807 100.346 39.756 98.9961 41.2811C104.105 41.5204 109.566 44.9656 109.888 50.0498C110.109 53.4376 107.966 56.6437 105.182 58.5864C102.398 60.5292 99.0057 61.4216 95.6787 62.1513C85.9643 64.2879 50.8157 73.2288 57.155 53.5932Z" fill="#333333"/>
<path d="M46.8087 95.3957C48.678 95.3957 50.1934 92.5656 50.1934 89.0745C50.1934 85.5835 48.678 82.7534 46.8087 82.7534C44.9394 82.7534 43.4241 85.5835 43.4241 89.0745C43.4241 92.5656 44.9394 95.3957 46.8087 95.3957Z" fill="#FDB797"/>
<path d="M119.58 95.3957C121.45 95.3957 122.965 92.5656 122.965 89.0745C122.965 85.5835 121.45 82.7534 119.58 82.7534C117.711 82.7534 116.196 85.5835 116.196 89.0745C116.196 92.5656 117.711 95.3957 119.58 95.3957Z" fill="#FDB797"/>
</g>
<defs>
<linearGradient id="paint0_linear_84_322" x1="83.8359" y1="167" x2="83.8359" y2="0" gradientUnits="userSpaceOnUse">
<stop stop-color="#808080" stop-opacity="0.25"/>
<stop offset="0.54" stop-color="#808080" stop-opacity="0.12"/>
<stop offset="1" stop-color="#808080" stop-opacity="0.1"/>
</linearGradient>
<clipPath id="clip0_84_322">
<rect width="167.672" height="167" fill="white"/>
</clipPath>
</defs>
</svg>
